<svg xmlns="http://www.w3.org/2000/svg" xmlns:svg="http://www.w3.org/2000/svg" id="svg2" width="230" height="314" version="1.1" xml:space="preserve"><metadata id="metadata8"/><g id="g10" transform="matrix(1.25,0,0,-1.25,0,313.99999)"><g id="g12" transform="scale(0.14704825,0.14704825)"><path style="fill:#f68712;fill-opacity:1;fill-rule:nonzero;stroke:none" id="path14" d="M 625.645,1548.82 156.406,1079.59 625.645,610.371 1094.86,1079.59 625.645,1548.82"/><path style="fill:#fab20b;fill-opacity:1;fill-rule:nonzero;stroke:none" id="path16" d="M 0,1705.23 625.645,1548.82 156.406,1079.59 0,1705.23"/><path style="fill:#f47216;fill-opacity:1;fill-rule:nonzero;stroke:none" id="path18" d="m 1251.29,1705.23 -156.43,-625.64 -469.215,469.23 625.645,156.41"/><path style="fill:#f25c19;fill-opacity:1;fill-rule:nonzero;stroke:none" id="path20" d="M 1251.29,453.961 625.645,610.371 1094.86,1079.59 1251.29,453.961"/><path style="fill:#f89c0e;fill-opacity:1;fill-rule:nonzero;stroke:none" id="path22" d="M 0,453.961 156.406,1079.59 625.645,610.371 0,453.961"/><path style="fill:#fbc707;fill-opacity:1;fill-rule:nonzero;stroke:none" id="path24" d="M 625.645,1548.82 0,1705.23 l 312.812,0 312.833,-156.41"/><path style="fill:#fbc707;fill-opacity:1;fill-rule:nonzero;stroke:none" id="path26" d="m 625.645,1548.82 625.645,156.41 -312.833,0 -312.812,-156.41"/><path style="fill:#f68712;fill-opacity:1;fill-rule:nonzero;stroke:none" id="path28" d="m 625.645,610.371 625.645,-156.41 -312.833,0 -312.812,156.41"/><path style="fill:#f25c19;fill-opacity:1;fill-rule:nonzero;stroke:none" id="path30" d="M 625.645,610.371 0,453.961 l 312.812,0 312.833,156.41"/><path style="fill:#fff200;fill-opacity:1;fill-rule:nonzero;stroke:none" id="path32" d="M 156.406,1079.59 0,453.961 0,766.773 156.406,1079.59"/><path style="fill:#fff200;fill-opacity:1;fill-rule:nonzero;stroke:none" id="path34" d="M 156.406,1079.59 0,1705.23 0,1392.42 156.406,1079.59"/><path style="fill:#f1471d;fill-opacity:1;fill-rule:nonzero;stroke:none" id="path36" d="m 1094.86,1079.59 156.43,625.64 0,-312.81 -156.43,-312.83"/><path style="fill:#f1471d;fill-opacity:1;fill-rule:nonzero;stroke:none" id="path38" d="m 1094.86,1079.59 156.43,-625.629 0,312.812 -156.43,312.817"/><path style="fill:#4f4c4c;fill-opacity:1;fill-rule:nonzero;stroke:none" id="path40" d="m 0,316.32 97.4805,0 0,-109.84 91.2495,0 0,109.84 97.481,0 0,-316.32 -97.481,0 0,125.371 -91.2495,0 L 97.4805,0 0,0 0,316.32"/><path style="fill:#4f4c4c;fill-opacity:1;fill-rule:nonzero;stroke:none" id="path42" d="m 500.703,113.02 -28.398,97.41 -0.879,0 -30.547,-97.41 59.824,0 z m -76.621,203.3 95.195,0 L 634.492,0 533.477,0 l -13.282,45.1719 -100.586,0 L 405.449,0 307.5,0 424.082,316.32"/><path style="fill:#4f4c4c;fill-opacity:1;fill-rule:nonzero;stroke:none" id="path44" d="m 739.98,168.352 -104.14,147.968 114.316,0 47.832,-85.929 46.992,85.929 108.086,0 L 851.641,167.461 964.57,0 847.188,0 793.145,94.3711 737.324,0 625.664,0 739.98,168.352"/><path style="fill:#4f4c4c;fill-opacity:1;fill-rule:nonzero;stroke:none" id="path46" d="m 984.551,316.32 261.839,0 0,-81.031 -164.36,0 0,-39.449 149.3,0 0,-75.36 -149.3,0 0,-39.4097 169.26,0 0,-81.0703 -266.739,0 0,316.32"/></g></g></svg>